<?xml version="1.0" standalone="no"?>
<!DOCTYPE svg PUBLIC "-//W3C//DTD SVG 20010904//EN"
 "http://www.w3.org/TR/2001/REC-SVG-20010904/DTD/svg10.dtd">
<svg version="1.0" xmlns="http://www.w3.org/2000/svg"
 width="700.000000pt" height="700.000000pt" viewBox="0 0 700.000000 700.000000"
 preserveAspectRatio="xMidYMid meet">
<metadata>
Created by potrace 1.14, written by Peter Selinger 2001-2017
</metadata>
<g transform="translate(0.000000,700.000000) scale(0.100000,-0.100000)"
fill="#000000" stroke="none">
<path d="M1738 5904 c-2 -1 -21 -5 -43 -8 -67 -8 -146 -36 -221 -76 -172 -92
-305 -256 -354 -440 -7 -25 -15 -54 -18 -65 -3 -11 -6 -160 -8 -332 -3 -357
-1 -374 71 -447 117 -121 318 -83 388 73 18 41 20 70 22 340 1 225 5 303 16
326 25 55 59 92 111 120 l53 29 295 1 c272 2 298 3 340 22 93 42 144 121 143
224 0 76 -17 114 -76 171 -65 63 -100 69 -429 67 -158 -1 -289 -3 -290 -5z"/>
<path d="M4627 5894 c-57 -20 -113 -69 -137 -119 -60 -125 -7 -271 120 -328
42 -19 68 -20 340 -22 264 -1 299 -3 330 -19 64 -34 86 -54 115 -108 l29 -53
2 -295 c1 -272 3 -299 21 -340 73 -163 293 -195 405 -60 53 65 59 109 57 422
-1 156 -6 299 -10 318 -4 19 -10 50 -14 67 -13 78 -82 217 -138 281 -94 107
-156 155 -265 204 -124 56 -211 67 -532 67 -215 -1 -294 -4 -323 -15z"/>
<path d="M3467 4464 c-1 -1 -33 -4 -72 -8 -319 -30 -610 -234 -759 -533 -177
-355 -110 -795 166 -1084 428 -448 1148 -388 1497 126 262 386 204 905 -138
1234 -170 163 -389 253 -649 265 -23 1 -44 1 -45 0z m148 -496 c74 -17 166
-70 226 -131 140 -143 179 -357 97 -535 -79 -172 -246 -280 -435 -280 -215 0
-388 123 -459 328 -30 86 -28 237 4 317 61 150 192 267 338 302 48 12 174 11
229 -1z"/>
<path d="M1267 2525 c-62 -16 -116 -60 -147 -121 -25 -48 -25 -49 -26 -351 -2
-331 4 -388 52 -508 91 -227 302 -398 543 -440 110 -20 626 -19 684 1 206 70
217 358 17 447 -40 18 -68 20 -340 21 -282 2 -297 3 -337 24 -56 29 -86 58
-114 112 -22 44 -23 52 -24 340 -2 272 -3 299 -22 340 -50 113 -165 167 -286
135z"/>
<path d="M5573 2515 c-60 -28 -100 -68 -126 -124 -18 -41 -20 -70 -21 -340 -2
-283 -3 -298 -24 -338 -29 -56 -58 -86 -112 -114 -44 -22 -52 -23 -341 -25
-271 -1 -299 -3 -340 -21 -115 -52 -171 -183 -131 -303 16 -48 68 -104 122
-132 44 -22 53 -23 345 -25 307 -1 372 4 478 41 240 82 414 285 473 551 4 17
8 168 10 336 4 337 1 362 -56 431 -63 76 -188 105 -277 63z"/>
</g>
</svg>
